<?xml version="1.0" encoding="utf-8"?>
<!-- Generator: Adobe Illustrator 23.0.0, SVG Export Plug-In . SVG Version: 6.00 Build 0)  -->
<svg version="1.1" id="Layer_1" xmlns="http://www.w3.org/2000/svg" xmlns:xlink="http://www.w3.org/1999/xlink" x="0px" y="0px"
	 viewBox="0 0 566.93 425.2" style="enable-background:new 0 0 566.93 425.2;" xml:space="preserve">
<style type="text/css">
	.st0{fill:#308D8C;}
	.st1{font-family:'MyriadPro-Regular';}
	.st2{font-size:153.8752px;}
</style>
<text transform="matrix(1 0 0 1 175.4761 242.5918)" class="st0 st1 st2">Letzte</text>
<g>
	<path class="st0" d="M175.48,234.44c6.76-1.38,16.45-2.15,25.68-2.15c14.3,0,23.53,2.62,29.98,8.46
		c5.23,4.61,8.15,11.69,8.15,19.69c0,13.69-8.61,22.76-19.53,26.45v0.46c8,2.77,12.76,10.16,15.22,20.92
		c3.39,14.46,5.85,24.45,8,28.45h-13.84c-1.69-2.92-4-11.84-6.92-24.76c-3.07-14.3-8.62-19.69-20.76-20.14h-12.61v44.91h-13.38
		v-48.79V234.44z M188.86,281.66h13.69c14.3,0,23.37-7.85,23.37-19.69c0-13.38-9.69-19.23-23.84-19.38
		c-6.46,0-11.07,0.61-13.22,1.23V281.66z"/>
	<path class="st0" d="M274.4,241.36c0.16,4.61-3.23,8.31-8.61,8.31c-4.77,0-8.15-3.69-8.15-8.31c0-4.76,3.54-8.46,8.46-8.46
		C271.17,232.9,274.4,236.59,274.4,241.36z M259.33,336.71v-74.43h13.54v74.43H259.33z"/>
	<path class="st0" d="M311.65,240.9v21.38h19.38v10.3h-19.38v40.14c0,9.23,2.61,14.46,10.15,14.46c3.54,0,6.15-0.46,7.85-0.92
		l0.61,10.15c-2.62,1.08-6.77,1.85-12,1.85c-6.31,0-11.38-2-14.61-5.69c-3.84-4-5.23-10.61-5.23-19.38v-40.6h-11.53v-10.3h11.53
		v-17.84L311.65,240.9z"/>
	<path class="st0" d="M362.58,240.9v21.38h19.38v10.3h-19.38v40.14c0,9.23,2.61,14.46,10.15,14.46c3.54,0,6.15-0.46,7.84-0.92
		l0.62,10.15c-2.62,1.08-6.77,1.85-12,1.85c-6.31,0-11.38-2-14.61-5.69c-3.84-4-5.23-10.61-5.23-19.38v-40.6h-11.53v-10.3h11.53
		v-17.84L362.58,240.9z"/>
	<path class="st0" d="M403.82,301.95c0.31,18.3,12,25.83,25.53,25.83c9.69,0,15.53-1.69,20.61-3.84l2.31,9.69
		c-4.77,2.15-12.92,4.61-24.76,4.61c-22.92,0-36.6-15.07-36.6-37.53c0-22.45,13.23-40.13,34.91-40.13
		c24.3,0,30.76,21.38,30.76,35.06c0,2.77-0.31,4.92-0.46,6.31H403.82z M443.5,292.26c0.15-8.61-3.54-21.99-18.76-21.99
		c-13.69,0-19.69,12.61-20.76,21.99H443.5z"/>
	<path class="st0" d="M473.37,285.5c0-8.77-0.15-16.3-0.61-23.22h11.84l0.46,14.61h0.61c3.38-9.99,11.53-16.3,20.61-16.3
		c1.54,0,2.62,0.15,3.84,0.46v12.77c-1.38-0.31-2.77-0.46-4.61-0.46c-9.54,0-16.3,7.23-18.15,17.38c-0.31,1.85-0.61,3.99-0.61,6.31
		v39.68h-13.38V285.5z"/>
</g>
<g>
	<path class="st0" d="M187.5,61.24c4.08-0.62,8.54-1.16,13.3-1.54s9.84-0.61,15.15-0.61c9.61,0,17.84,1.11,24.8,3.29
		c6.96,2.17,12.65,5.4,17.18,9.63c4.61,4.23,8.27,9.34,10.77,15.49c2.5,6.15,3.85,13.34,3.85,21.72c0,8.46-1.31,16.15-3.83,22.92
		c-2.52,6.77-6.25,12.61-11.09,17.38c-4.84,4.84-11.26,8.57-18.99,11.09c-7.73,2.52-16.76,3.82-26.83,3.82
		c-4.77,0-9.15-0.11-13.19-0.32c-4.04-0.21-7.73-0.52-11.11-0.9v-50.98V61.24z M200.88,152.9c1.69,0.31,3.77,0.5,6.07,0.62
		c2.31,0.12,4.84,0.15,7.46,0.15c14.3,0,25.34-4,32.8-11.5c7.46-7.5,11.34-18.49,11.34-32.49c0.08-12.22-3.35-22.22-10.32-29.16
		c-6.98-6.94-17.51-10.82-31.66-10.82c-3.46,0-6.5,0.15-9.11,0.4c-2.61,0.25-4.81,0.6-6.57,0.98v40.91V152.9z"/>
	<path class="st0" d="M297.66,128.75c0.15,9.15,3.15,15.61,7.8,19.78c4.65,4.17,10.96,6.05,17.72,6.05c4.84,0,8.73-0.42,12.03-1.11
		s6.04-1.65,8.57-2.73l1.16,4.85l1.16,4.85c-2.39,1.08-5.61,2.23-9.73,3.11c-4.11,0.88-9.11,1.5-15.03,1.5
		c-11.46,0-20.61-3.77-26.89-10.34c-6.29-6.58-9.71-15.96-9.71-27.19c0-11.23,3.31-21.26,9.33-28.49
		c6.02-7.23,14.75-11.65,25.59-11.65c12.15,0,19.84,5.34,24.49,12.4c4.65,7.05,6.27,15.82,6.27,22.66c0,1.38-0.08,2.61-0.18,3.67
		c-0.1,1.06-0.21,1.94-0.29,2.63h-26.14H297.66z M337.34,119.06c0.08-4.3-0.81-9.8-3.62-14.22s-7.54-7.77-15.15-7.77
		c-6.84,0-11.76,3.15-15.11,7.48s-5.11,9.82-5.65,14.51h19.76H337.34z"/>
	<path class="st0" d="M367.22,112.3c0-4.38-0.04-8.46-0.13-12.3c-0.1-3.85-0.25-7.46-0.48-10.92h5.92h5.92l0.23,7.3l0.23,7.3h0.31
		h0.31c1.69-5,4.57-9.07,8.17-11.9c3.59-2.83,7.9-4.4,12.44-4.4c0.77,0,1.42,0.04,2.04,0.11c0.62,0.08,1.19,0.19,1.8,0.34v6.38v6.38
		c-0.69-0.15-1.38-0.27-2.13-0.35s-1.56-0.12-2.48-0.12c-4.77,0-8.84,1.81-11.96,4.88c-3.11,3.08-5.27,7.42-6.19,12.5
		c-0.15,0.92-0.31,1.92-0.42,2.98c-0.12,1.06-0.19,2.17-0.19,3.33v19.84v19.84h-6.69h-6.69v-25.61V112.3z"/>
</g>
<path class="st0" d="M72.34,233.19l6.16-41.54l-64.05-31.91v39.42l44.57,24.75v124.55c-7.85-4.25-18.91-11.44-29.5-23.1
	c-8.27-9.1-13.69-18.1-17.19-25.08c-0.67-20.72-1.34-41.43-2.02-62.15L0,216.95v-83.65c11.85-40.38,49.24-68.19,91.15-67.89
	c41.42,0.29,78.09,27.98,89.81,67.89c0.15,27.84,0.3,55.69,0.45,83.53l-10.08,21.39l-2.35,61.7c-3.45,6.9-8.65,15.59-16.46,24.41
	c-10.74,12.14-22.06,19.65-30.12,24.1c0-41.63,0-83.26,0-124.88l45.01-24.3L167.18,160l-64.16,31.43l5.93,42.1L90.7,249.2
	L72.34,233.19z"/>
</svg>
